<svg width="23" height="23" viewBox="0 0 23 23" fill="none" xmlns="http://www.w3.org/2000/svg">
<path d="M5.28829 6.49398C5.44602 6.39992 5.49762 6.19587 5.40355 6.03814C5.24122 5.76587 5.17211 5.50472 5.19822 5.26188C5.2167 5.08993 5.27531 4.97839 5.35647 4.82408C5.43613 4.67261 5.52639 4.50092 5.58198 4.25662C5.6819 3.81731 5.61997 3.33779 5.39788 2.83142C5.32416 2.66327 5.12813 2.58676 4.95986 2.66052C4.79171 2.73429 4.71516 2.93036 4.78896 3.09855C4.95259 3.47167 5.00126 3.81168 4.93361 4.10913C4.8974 4.26854 4.83742 4.38256 4.768 4.51462C4.67477 4.69189 4.56918 4.89275 4.53713 5.19087C4.49528 5.58026 4.59467 5.97989 4.8325 6.37873C4.92741 6.538 5.13279 6.58672 5.28829 6.49398ZM18.977 8.61179C19.1347 8.51773 19.1863 8.31368 19.0923 8.15595C18.9299 7.88372 18.8609 7.62257 18.887 7.37969C18.9055 7.20774 18.9641 7.09616 19.0452 6.94185C19.1249 6.79037 19.2151 6.61873 19.2707 6.37443C19.3707 5.93512 19.3087 5.4556 19.0866 4.94927C19.0129 4.78113 18.8169 4.70466 18.6486 4.77833C18.4805 4.8521 18.4039 5.04821 18.4777 5.21636C18.6413 5.58952 18.69 5.92953 18.6224 6.22694C18.5861 6.38639 18.5261 6.50041 18.4568 6.63247C18.3635 6.80974 18.2579 7.01065 18.2259 7.30872C18.184 7.69816 18.2834 8.09783 18.5212 8.49662C18.6161 8.65581 18.8215 8.70453 18.977 8.61179ZM20.521 12.3124C20.6787 12.2183 20.7303 12.0142 20.6362 11.8565C20.4739 11.5843 20.4048 11.3231 20.4309 11.0803C20.4494 10.9083 20.508 10.7968 20.5892 10.6425C20.6688 10.491 20.7591 10.3193 20.8146 10.075C20.9146 9.63581 20.8527 9.1563 20.6306 8.64983C20.5569 8.48169 20.3607 8.40513 20.1926 8.47885C20.0244 8.55261 19.9479 8.74868 20.0217 8.91687C20.1853 9.29008 20.234 9.63009 20.1663 9.9275C20.1301 10.0869 20.07 10.201 20.0007 10.333C19.9074 10.5103 19.8019 10.7112 19.7698 11.0092C19.728 11.3987 19.8274 11.7983 20.0652 12.1971C20.1601 12.3564 20.3655 12.4051 20.521 12.3124ZM3.29346 3.86151C3.45118 3.76744 3.50278 3.56339 3.40871 3.40566C3.24638 3.13339 3.17727 2.87224 3.20338 2.62941C3.22186 2.45749 3.28047 2.34596 3.36164 2.1916C3.4413 2.04013 3.53155 1.86844 3.58714 1.62414C3.68706 1.18483 3.62509 0.705317 3.40304 0.198982C3.32932 0.0308395 3.13325 -0.0456293 2.96502 0.0280467C2.79687 0.101811 2.72032 0.297926 2.79413 0.466069C2.95775 0.839192 3.00642 1.17925 2.93877 1.4767C2.90256 1.63611 2.84253 1.75017 2.77316 1.88223C2.67993 2.05946 2.57434 2.26036 2.54229 2.55843C2.50044 2.94783 2.59983 3.34746 2.83766 3.74629C2.93257 3.90553 3.13795 3.95424 3.29346 3.86151ZM18.3411 16.4507C17.8844 16.0317 17.2123 15.9036 16.7215 15.81C16.435 15.7554 16.2224 15.7281 15.9836 15.6904C15.3936 15.5972 14.7894 15.4633 14.3664 15.1176C13.9928 14.8124 13.8897 14.5032 13.7874 14.1478C13.7218 13.9196 13.526 13.763 13.2887 13.7489C13.0511 13.7347 12.8374 13.8675 12.7449 14.0869C12.4644 14.7526 12.2236 15.7544 12.6688 16.7469C13.038 17.5701 13.7767 18.1394 14.805 18.3932C15.2143 18.4942 15.6275 18.5339 16.0085 18.5339C16.4558 18.5339 16.8586 18.4792 17.1578 18.4043C18.0818 18.1731 18.6074 17.8309 18.72 17.3872C18.7754 17.1693 18.7545 16.83 18.3411 16.4507ZM18.0756 17.2236C18.0507 17.3217 17.7931 17.5599 16.9964 17.7592C16.5198 17.8784 15.7358 17.938 14.9644 17.7476C14.3908 17.6061 13.6323 17.2703 13.2754 16.4747C12.984 15.825 13.0781 15.1495 13.2513 14.6274C13.3991 14.9686 13.4794 15.2516 13.9456 15.6325C14.4911 16.0782 15.1975 16.2394 15.8797 16.3472C16.1199 16.3851 16.597 16.4632 16.597 16.4632C17.0094 16.5418 17.5741 16.6495 17.8915 16.9406C18.0447 17.0812 18.0864 17.1809 18.0756 17.2236ZM22.6247 19.4114C22.5387 19.2758 22.3913 19.1948 22.2305 19.1948H20.1624C20.5958 18.6422 20.8297 18.0656 20.8584 17.4736C20.8922 16.7746 20.6298 16.0584 20.0783 15.345C19.9661 15.1997 19.7573 15.1731 19.6119 15.2853C19.4667 15.3976 19.4399 15.6064 19.5522 15.7517C20.0041 16.3364 20.2201 16.9049 20.1941 17.4414C20.1655 18.0325 19.8541 18.6218 19.2691 19.1948H8.54387C8.36021 19.1948 8.2114 19.3436 8.2114 19.5272C8.2114 19.7109 8.36021 19.8597 8.54387 19.8597H21.9166L21.1627 21.457C20.9979 21.8062 20.6399 22.0319 20.2508 22.0319H2.44654C2.05741 22.0319 1.69945 21.8062 1.53467 21.457L0.780712 19.8597H4.82008H6.99233C7.17599 19.8597 7.3248 19.7109 7.3248 19.5272C7.3248 19.3436 7.17599 19.1948 6.99233 19.1948H4.98707C4.67987 18.7664 4.49337 18.3193 4.43304 17.8635C4.36145 17.3217 4.4662 16.7516 4.74299 16.163C4.87146 16.3622 5.02094 16.5491 5.19117 16.7194C5.82615 17.3543 6.66846 17.7031 7.56556 17.7031C7.57358 17.7031 7.58165 17.7031 7.58967 17.703C8.4956 17.6967 9.34256 17.3353 9.9747 16.6853C10.5918 16.0508 10.9299 15.2152 10.9267 14.3325C10.9234 13.3928 10.5286 12.5035 9.83462 11.868C12.1582 11.1156 14.7899 12.2077 16.4315 13.2405C17.0918 13.6559 17.9975 14.2671 18.5136 14.6999C18.6536 14.8173 18.8635 14.8001 18.982 14.6587C19.0999 14.518 19.0815 14.3083 18.9408 14.1903C18.5724 13.8814 18.1601 13.5756 17.6577 13.2393C17.9709 12.0954 17.6519 10.8457 16.8097 9.9916C16.2386 9.41248 15.478 9.06041 14.6679 9.00021C13.825 8.93771 13.0388 8.62314 12.3944 8.09048L11.4197 7.28514C11.1006 7.0212 10.704 6.91308 10.3221 6.95572L9.99363 6.62702C10.2669 6.13301 10.1702 5.49936 9.74769 5.11045C9.26928 4.66973 8.5245 4.675 8.05194 5.1226C7.8975 5.26906 7.78384 5.45113 7.72071 5.65225C7.51897 5.71547 7.33677 5.8293 7.19093 5.98366C6.74324 6.45622 6.73797 7.20122 7.17891 7.67976C7.56746 8.10134 8.20067 8.19806 8.69543 7.92535L9.02551 8.25538C8.98247 8.64757 9.10043 9.04561 9.35298 9.35122L10.2011 10.3775C10.3651 10.5759 10.5077 10.7879 10.6277 11.011C10.1313 11.0869 9.64072 11.2143 9.16373 11.3907C8.75045 11.1671 8.29217 11.0304 7.81642 10.9951C6.97327 10.9325 6.18712 10.618 5.54292 10.0855L4.56807 9.27971C4.24889 9.01586 3.85232 8.90783 3.47037 8.95047L3.14198 8.62181C3.41514 8.12798 3.31863 7.49437 2.89635 7.10516C2.41754 6.66461 1.67267 6.66993 1.20034 7.11744C1.04594 7.26386 0.932231 7.44592 0.869061 7.64713C0.667981 7.71021 0.48583 7.82392 0.339276 7.9785C-0.10841 8.45106 -0.113685 9.19602 0.327263 9.6746C0.716035 10.0964 1.34924 10.1931 1.84387 9.92023L2.1724 10.2488C2.1298 10.6307 2.23783 11.0271 2.50159 11.3462L3.34962 12.3722C3.86252 12.9927 4.16919 13.761 4.21312 14.5358C4.23041 14.8403 4.28897 15.138 4.38507 15.422C3.87196 16.2847 3.666 17.1346 3.77381 17.9507C3.83029 18.3772 3.97267 18.7937 4.19854 19.1948H0.466812C0.306028 19.1948 0.158676 19.2758 0.0726766 19.4114C-0.0130572 19.5466 -0.0234303 19.7137 0.0448818 19.8586L0.933339 21.7408C1.20743 22.3215 1.80136 22.6968 2.44653 22.6968H20.2508C20.896 22.6968 21.4899 22.3215 21.764 21.7408L22.6525 19.8585C22.7208 19.7138 22.7104 19.5466 22.6247 19.4114ZM9.44651 7.37836C9.38583 7.43892 9.33152 7.50408 9.28307 7.57275L9.08589 7.37553C8.90715 7.19803 8.6261 7.17334 8.41873 7.31586C8.18382 7.47607 7.86088 7.43879 7.66783 7.22919C7.46298 7.00688 7.46551 6.66067 7.67386 6.44075C7.74837 6.36193 7.84289 6.30594 7.9471 6.27894C8.14326 6.22827 8.29656 6.07498 8.34718 5.87904C8.37409 5.77496 8.43021 5.68027 8.50929 5.60531C8.72873 5.39744 9.07476 5.39487 9.29712 5.59968C9.50698 5.79287 9.54435 6.11554 9.3837 6.35049C9.2406 6.5603 9.26649 6.84158 9.44443 7.01841L9.64085 7.21496C9.57272 7.26311 9.50755 7.31737 9.44651 7.37836ZM9.86556 8.92782C9.74685 8.78397 9.68146 8.6024 9.68146 8.41648C9.68146 8.2017 9.76489 8.00018 9.91654 7.84879C10.0198 7.74555 10.1441 7.67657 10.2755 7.64097C10.2874 7.63862 10.2992 7.63543 10.3109 7.63175C10.5447 7.57971 10.7977 7.63361 10.996 7.79772L11.9707 8.60315C12.7219 9.22403 13.6376 9.59068 14.6187 9.66343C15.2682 9.71166 15.8782 9.99404 16.3362 10.4586C16.9608 11.0919 17.2266 11.9963 17.0648 12.854C15.8057 12.0507 13.8209 10.7893 11.333 10.9371C11.1707 10.5863 10.9635 10.2562 10.7135 9.95392L9.86556 8.92782ZM2.59495 9.37325C2.53395 9.43425 2.47965 9.49945 2.43151 9.56759L2.23433 9.37037C2.05559 9.19287 1.77454 9.16813 1.56703 9.31083C1.33231 9.47099 1.00945 9.43371 0.816175 9.22408C0.611328 9.00172 0.613854 8.6555 0.821805 8.43603C0.896856 8.35686 0.991588 8.30073 1.0955 8.27383C1.29161 8.22316 1.4449 8.06986 1.49548 7.87397C1.52248 7.76984 1.5786 7.67511 1.65769 7.6001C1.87716 7.39215 2.22342 7.38971 2.44578 7.59438C2.65551 7.78766 2.6927 8.11034 2.53205 8.34529C2.38939 8.55448 2.41502 8.83544 2.59282 9.0132L2.7892 9.20976C2.72111 9.25795 2.65595 9.31221 2.59495 9.37325ZM3.86212 11.9486L3.01404 10.9226C2.74598 10.5988 2.77373 10.1348 3.06516 9.84341C3.35654 9.55203 3.82373 9.52645 4.14432 9.7923L5.11918 10.5981C5.87012 11.2188 6.78584 11.5854 7.76712 11.6583C8.41647 11.7065 9.0264 11.9888 9.48446 12.4533C9.98312 12.959 10.2592 13.6272 10.2617 14.3349C10.2643 15.0426 9.99297 15.7127 9.49794 16.2217C8.99089 16.7431 8.31154 17.033 7.58502 17.0381C7.57855 17.0382 7.57216 17.0382 7.56565 17.0382C6.84622 17.0382 6.17054 16.7584 5.66137 16.2492C5.19303 15.7808 4.91433 15.159 4.87691 14.4983C4.82505 13.583 4.46465 12.6775 3.86212 11.9486Z" fill="#A8A7A7"/>
</svg>
