<svg width="42" height="8" viewBox="0 0 42 8" fill="none" xmlns="http://www.w3.org/2000/svg">
<path d="M7.00778 3.27666C6.96371 3.14112 6.8435 3.04517 6.70183 3.03235L4.76961 2.85693L4.00599 1.06913C3.94961 0.937786 3.82133 0.853012 3.67854 0.853012C3.53575 0.853012 3.40742 0.937785 3.3514 1.06913L2.58778 2.85693L0.655257 3.03235C0.513594 3.04542 0.393634 3.14138 0.349308 3.27666C0.305236 3.41219 0.345937 3.56085 0.453078 3.65482L1.91368 4.93556L1.48303 6.83233C1.45152 6.9718 1.50565 7.11602 1.62137 7.19967C1.68357 7.24486 1.75665 7.26744 1.82998 7.26744C1.893 7.26744 1.95607 7.25068 2.0124 7.21698L3.67854 6.22074L5.34439 7.21698C5.4666 7.29001 5.62026 7.28332 5.73573 7.19967C5.85145 7.11602 5.90558 6.9718 5.87407 6.83233L5.44341 4.93556L6.90402 3.65482C7.01111 3.56085 7.05186 3.4125 7.00778 3.27666Z" fill="#FFE120"/>
<path d="M15.5002 3.27666C15.4561 3.14112 15.3359 3.04517 15.1943 3.03235L13.262 2.85693L12.4984 1.06913C12.442 0.937786 12.3138 0.853012 12.171 0.853012C12.0282 0.853012 11.8999 0.937785 11.8438 1.06913L11.0802 2.85693L9.14769 3.03235C9.00603 3.04542 8.88607 3.14138 8.84174 3.27666C8.79767 3.41219 8.83837 3.56085 8.94551 3.65482L10.4061 4.93556L9.97546 6.83233C9.94395 6.9718 9.99808 7.11602 10.1138 7.19967C10.176 7.24486 10.2491 7.26744 10.3224 7.26744C10.3854 7.26744 10.4485 7.25068 10.5048 7.21698L12.171 6.22074L13.8368 7.21698C13.959 7.29001 14.1127 7.28332 14.2282 7.19967C14.3439 7.11602 14.398 6.9718 14.3665 6.83233L13.9358 4.93556L15.3965 3.65482C15.5035 3.56085 15.5443 3.4125 15.5002 3.27666Z" fill="#FFE120"/>
<path d="M23.9928 3.27666C23.9487 3.14112 23.8285 3.04517 23.6868 3.03235L21.7546 2.85693L20.991 1.06913C20.9346 0.937786 20.8063 0.853012 20.6635 0.853012C20.5207 0.853012 20.3924 0.937785 20.3364 1.06913L19.5728 2.85693L17.6402 3.03235C17.4986 3.04542 17.3786 3.14138 17.3343 3.27666C17.2902 3.41219 17.3309 3.56085 17.4381 3.65482L18.8987 4.93556L18.468 6.83233C18.4365 6.9718 18.4906 7.11602 18.6064 7.19967C18.6686 7.24486 18.7416 7.26744 18.815 7.26744C18.878 7.26744 18.9411 7.25068 18.9974 7.21698L20.6635 6.22074L22.3294 7.21698C22.4516 7.29001 22.6052 7.28332 22.7207 7.19967C22.8364 7.11602 22.8906 6.9718 22.8591 6.83233L22.4284 4.93556L23.889 3.65482C23.9961 3.56085 24.0368 3.4125 23.9928 3.27666Z" fill="#FFE120"/>
<path d="M32.4853 3.27666C32.4412 3.14112 32.321 3.04517 32.1794 3.03235L30.2472 2.85693L29.4835 1.06913C29.4272 0.937786 29.2989 0.853012 29.1561 0.853012C29.0133 0.853012 28.885 0.937785 28.8289 1.06913L28.0653 2.85693L26.1328 3.03235C25.9911 3.04542 25.8712 3.14138 25.8268 3.27666C25.7828 3.41219 25.8235 3.56085 25.9306 3.65482L27.3912 4.93556L26.9606 6.83233C26.9291 6.9718 26.9832 7.11602 27.0989 7.19967C27.1611 7.24486 27.2342 7.26744 27.3075 7.26744C27.3705 7.26744 27.4336 7.25068 27.4899 7.21698L29.1561 6.22074L30.8219 7.21698C30.9441 7.29001 31.0978 7.28332 31.2133 7.19967C31.329 7.11602 31.3831 6.9718 31.3516 6.83233L30.921 4.93556L32.3816 3.65482C32.4886 3.56085 32.5294 3.4125 32.4853 3.27666Z" stroke="#FFE120"/>
<path d="M40.9778 3.27666C40.9337 3.14112 40.8135 3.04517 40.6718 3.03235L38.7396 2.85693L37.976 1.06913C37.9196 0.937786 37.7913 0.853012 37.6485 0.853012C37.5057 0.853012 37.3774 0.937785 37.3214 1.06913L36.5577 2.85693L34.6252 3.03235C34.4836 3.04542 34.3636 3.14138 34.3193 3.27666C34.2752 3.41219 34.3159 3.56085 34.423 3.65482L35.8837 4.93556L35.453 6.83233C35.4215 6.9718 35.4756 7.11602 35.5913 7.19967C35.6535 7.24486 35.7266 7.26744 35.8 7.26744C35.863 7.26744 35.926 7.25068 35.9824 7.21698L37.6485 6.22074L39.3144 7.21698C39.4366 7.29001 39.5902 7.28332 39.7057 7.19967C39.8214 7.11602 39.8756 6.9718 39.844 6.83233L39.4134 4.93556L40.874 3.65482C40.9811 3.56085 41.0218 3.4125 40.9778 3.27666Z" stroke="#FFE120"/>
</svg>
