<svg width="22" height="25" viewBox="0 0 22 25" fill="none" xmlns="http://www.w3.org/2000/svg">
<path d="M16.7034 5.46042C16.8627 5.57532 17.0754 5.56736 17.2275 5.44185C17.3707 5.32364 17.4346 5.11638 17.3882 4.92833C17.3384 4.72673 17.1699 4.57858 16.9777 4.5673C16.7865 4.55608 16.6054 4.68227 16.535 4.87508C16.4581 5.08517 16.5282 5.3359 16.7034 5.46042Z" fill="#A8A7A7"/>
<path d="M18.6657 6.43359C18.5153 6.2188 18.2329 6.17656 18.0346 6.3397C17.8365 6.50263 17.7977 6.80893 17.948 7.02382C19.7284 9.56833 20.6996 12.5838 20.767 15.7656L19.0179 16.3673C18.8327 14.9273 18.5359 13.5844 18.1335 12.3678C18.1335 12.3677 18.1336 12.3679 18.1335 12.3678C17.7237 11.1274 17.1936 9.98688 16.558 8.9784C16.5578 8.97805 16.5576 8.97776 16.5574 8.97742C14.4238 5.59239 11.0282 3.5343 6.45915 2.85471L7.01633 0.98051C9.96703 1.0519 12.765 2.09075 15.1276 3.99587C15.2084 4.06095 15.3026 4.0924 15.3961 4.0924C15.5336 4.0924 15.6694 4.02428 15.7578 3.89548C15.9063 3.67907 15.8648 3.37326 15.6652 3.21228C13.059 1.11078 9.95519 0 6.68948 0C6.49396 0 6.32074 0.136767 6.2608 0.338523L2.80179 11.9741L1.60753 15.9909C1.60677 15.9935 1.60604 15.9961 1.60532 15.9987L0.0740789 21.1495C-0.101979 21.7426 0.0410208 22.3857 0.447275 22.828C0.857623 23.2747 1.45768 23.4337 2.01338 23.2424L8.59721 20.9772V22.9334C8.59721 24.0428 9.42012 24.9694 10.4316 24.9992C10.4494 24.9997 10.4672 25 10.4849 25C10.9815 25 11.4484 24.7951 11.8044 24.4194C12.1701 24.0335 12.3715 23.5172 12.3715 22.9657V19.6785L14.7374 18.8644V21.0789C14.7374 22.0275 15.4535 22.7991 16.3336 22.7991C16.7589 22.7991 17.1591 22.6207 17.4609 22.2964C17.763 21.9709 17.9293 21.5386 17.9293 21.0789V17.7662L21.3574 16.5869C21.5444 16.5226 21.6716 16.3343 21.6716 16.1216C21.6716 12.5941 20.6321 9.24407 18.6657 6.43359ZM15.9991 9.83215C16.4531 10.5995 16.8447 11.4443 17.1672 12.3519C16.979 12.4621 16.767 12.5208 16.5493 12.5208C15.8321 12.5208 15.2486 11.8883 15.2486 11.1107C15.2486 10.5566 15.5513 10.0601 15.9991 9.83215ZM3.96159 15.2323C3.5998 15.6215 3.11162 15.8123 2.61857 15.7739L3.63961 12.3394C3.75594 12.4159 3.86413 12.5074 3.96123 12.6118C4.28696 12.9622 4.4663 13.4277 4.4663 13.9225C4.46626 14.417 4.28705 14.8822 3.96159 15.2323ZM2.48679 22.0548C2.49322 21.2929 3.06693 20.6751 3.77126 20.6751C4.19089 20.6751 4.5766 20.8994 4.81369 21.2543L2.48679 22.0548ZM9.79097 19.2836C9.13254 19.992 8.0612 19.992 7.40277 19.2836C7.08488 18.9416 6.90991 18.4873 6.90991 18.0043C6.90991 17.5212 7.08493 17.0669 7.40277 16.7249C7.73201 16.3707 8.16443 16.1936 8.59689 16.1936C9.02936 16.1936 9.46178 16.3707 9.79102 16.7249C10.1089 17.0669 10.2839 17.5212 10.2839 18.0043C10.2838 18.4873 10.1088 18.9417 9.79097 19.2836ZM17.3427 16.9437C17.1556 17.0081 17.0285 17.1963 17.0285 17.409V21.0789C17.0285 21.2765 16.9566 21.4629 16.8263 21.6032C16.6947 21.7446 16.5197 21.8225 16.3336 21.8225C15.9502 21.8225 15.6382 21.4889 15.6382 21.0789V18.1971C15.6382 18.0414 15.5697 17.8951 15.4538 17.8031C15.3379 17.7111 15.1885 17.6846 15.0516 17.7317L11.7849 18.8558C11.5978 18.9202 11.4707 19.1084 11.4707 19.3212V22.9657C11.4707 23.2514 11.3661 23.5191 11.1761 23.7196C10.9831 23.9232 10.7286 24.0316 10.456 24.023C9.92776 24.0075 9.498 23.5187 9.498 22.9334V20.6171C9.83655 20.4823 10.154 20.2689 10.4255 19.9768C10.915 19.4501 11.1846 18.7496 11.1846 18.0042C11.1846 17.2589 10.915 16.5584 10.4255 16.0318C9.41719 14.9469 7.7766 14.9469 6.76826 16.0317C6.27869 16.5584 6.00912 17.2589 6.00912 18.0042C6.00912 18.7496 6.27869 19.4501 6.76826 19.9767C6.92558 20.146 7.09831 20.2889 7.28157 20.4053L5.69817 20.9501C5.32336 20.1944 4.58485 19.6986 3.77126 19.6986C2.56628 19.6986 1.58596 20.7615 1.58596 22.0678C1.58596 22.1602 1.59087 22.252 1.60059 22.343C1.41062 22.3627 1.22519 22.2911 1.08557 22.139C0.915729 21.9541 0.858125 21.6961 0.931491 21.4489L2.33685 16.7216C2.47282 16.7446 2.60911 16.756 2.74477 16.756C3.42793 16.756 4.09262 16.4673 4.59611 15.9256C5.09325 15.3907 5.36704 14.6794 5.36704 13.9226C5.36704 13.1655 5.09312 12.4539 4.5957 11.9187C4.39771 11.7057 4.16909 11.5282 3.92088 11.3932L6.17838 3.79943C10.3296 4.38351 13.4539 6.1395 15.4788 9.02536C14.7979 9.43913 14.3478 10.2322 14.3478 11.1108C14.3478 12.4268 15.3354 13.4975 16.5493 13.4975C16.869 13.4975 17.1815 13.4225 17.4669 13.2807C17.7715 14.3245 17.9993 15.4594 18.1464 16.6671L17.3427 16.9437Z" fill="#A8A7A7"/>
<path d="M11.4558 8.26796C11.4558 7.48277 11.1718 6.7448 10.656 6.18985C9.59363 5.047 7.86497 5.047 6.8026 6.18985C6.28687 6.74473 6.00281 7.4827 6.00281 8.26796C6.00281 9.05316 6.28687 9.79115 6.8026 10.3461C7.33379 10.9175 8.03156 11.2032 8.72929 11.2032C9.42705 11.2032 10.1248 10.9175 10.656 10.3461C11.1718 9.79115 11.4558 9.05316 11.4558 8.26796ZM10.0215 9.65282C9.30899 10.4194 8.14964 10.4194 7.43713 9.65282C7.09303 9.2827 6.90358 8.79092 6.90358 8.26796C6.90358 7.74501 7.09303 7.25321 7.43713 6.88311C7.7934 6.49982 8.26132 6.30821 8.72929 6.30821C9.19728 6.30821 9.66521 6.49987 10.0215 6.88311C10.3656 7.25321 10.555 7.74501 10.555 8.26796C10.555 8.79092 10.3656 9.2827 10.0215 9.65282Z" fill="#A8A7A7"/>
<path d="M13.2163 12.4584C12.3002 11.4327 10.7804 11.4113 9.82827 12.4106C9.74249 12.5007 9.69314 12.6241 9.69122 12.7535C9.68933 12.8829 9.73489 13.008 9.81802 13.101L12.5142 16.1198C12.6025 16.2187 12.7201 16.2684 12.8378 16.2684C12.9507 16.2684 13.0637 16.2227 13.1511 16.1309C14.1031 15.1316 14.1324 13.4841 13.2163 12.4584ZM12.8006 15.0366L10.8259 12.8257C11.3957 12.5142 12.1066 12.6199 12.5691 13.1377C13.0317 13.6556 13.1061 14.4293 12.8006 15.0366Z" fill="#A8A7A7"/>
</svg>
