<svg width="45" height="9" viewBox="0 0 45 9" fill="none" xmlns="http://www.w3.org/2000/svg">
<path d="M7.22377 3.62251C7.17608 3.47585 7.046 3.37202 6.89272 3.35815L4.80196 3.16834L3.97568 1.23385C3.91467 1.09173 3.77586 1 3.62136 1C3.46686 1 3.32799 1.09173 3.26737 1.23385L2.44109 3.16834L0.350011 3.35815C0.196724 3.3723 0.0669219 3.47613 0.018958 3.62251C-0.02873 3.76917 0.0153109 3.93002 0.131243 4.0317L1.71169 5.41752L1.2457 7.46993C1.21161 7.62084 1.27018 7.77689 1.39539 7.86741C1.4627 7.91631 1.54177 7.94074 1.62112 7.94074C1.68931 7.94074 1.75756 7.92261 1.81851 7.88614L3.62136 6.80816L5.4239 7.88614C5.55613 7.96516 5.7224 7.95792 5.84734 7.86741C5.97256 7.77689 6.03113 7.62084 5.99704 7.46993L5.53104 5.41752L7.11149 4.0317C7.22737 3.93002 7.27146 3.7695 7.22377 3.62251Z" fill="#FFE120"/>
<path d="M16.4131 3.62251C16.3654 3.47585 16.2353 3.37202 16.082 3.35815L13.9913 3.16834L13.165 1.23385C13.104 1.09173 12.9652 1 12.8107 1C12.6562 1 12.5173 1.09173 12.4567 1.23385L11.6304 3.16834L9.53934 3.35815C9.38606 3.3723 9.25625 3.47613 9.20829 3.62251C9.1606 3.76917 9.20464 3.93002 9.32057 4.0317L10.901 5.41752L10.435 7.46993C10.4009 7.62084 10.4595 7.77689 10.5847 7.86741C10.652 7.91631 10.7311 7.94074 10.8105 7.94074C10.8786 7.94074 10.9469 7.92261 11.0078 7.88614L12.8107 6.80816L14.6132 7.88614C14.7455 7.96516 14.9117 7.95792 15.0367 7.86741C15.1619 7.77689 15.2205 7.62084 15.1864 7.46993L14.7204 5.41752L16.3008 4.0317C16.4167 3.93002 16.4608 3.7695 16.4131 3.62251Z" fill="#FFE120"/>
<path d="M25.6024 3.62251C25.5547 3.47585 25.4247 3.37202 25.2714 3.35815L23.1806 3.16834L22.3543 1.23385C22.2933 1.09173 22.1545 1 22 1C21.8455 1 21.7067 1.09173 21.646 1.23385L20.8198 3.16834L18.7287 3.35815C18.5754 3.3723 18.4456 3.47613 18.3976 3.62251C18.3499 3.76917 18.394 3.93002 18.5099 4.0317L20.0904 5.41752L19.6244 7.46993C19.5903 7.62084 19.6488 7.77689 19.7741 7.86741C19.8414 7.91631 19.9204 7.94074 19.9998 7.94074C20.068 7.94074 20.1362 7.92261 20.1972 7.88614L22 6.80816L23.8026 7.88614C23.9348 7.96516 24.1011 7.95792 24.226 7.86741C24.3512 7.77689 24.4098 7.62084 24.3757 7.46993L23.9097 5.41752L25.4902 4.0317C25.606 3.93002 25.6501 3.7695 25.6024 3.62251Z" fill="#FFE120"/>
<path d="M34.7918 3.62251C34.7441 3.47585 34.614 3.37202 34.4607 3.35815L32.37 3.16834L31.5437 1.23385C31.4827 1.09173 31.3439 1 31.1894 1C31.0348 1 30.896 1.09173 30.8354 1.23385L30.0091 3.16834L27.918 3.35815C27.7647 3.3723 27.6349 3.47613 27.587 3.62251C27.5393 3.76917 27.5833 3.93002 27.6992 4.0317L29.2797 5.41752L28.8137 7.46993C28.7796 7.62084 28.8382 7.77689 28.9634 7.86741C29.0307 7.91631 29.1098 7.94074 29.1891 7.94074C29.2573 7.94074 29.3256 7.92261 29.3865 7.88614L31.1894 6.80816L32.9919 7.88614C33.1241 7.96516 33.2904 7.95792 33.4153 7.86741C33.5405 7.77689 33.5991 7.62084 33.565 7.46993L33.099 5.41752L34.6795 4.0317C34.7954 3.93002 34.8395 3.7695 34.7918 3.62251Z" fill="#FFE120"/>
<path d="M43.9811 3.62251C43.9334 3.47585 43.8033 3.37202 43.65 3.35815L41.5593 3.16834L40.733 1.23385C40.672 1.09173 40.5332 1 40.3787 1C40.2242 1 40.0853 1.09173 40.0247 1.23385L39.1984 3.16834L37.1073 3.35815C36.954 3.3723 36.8242 3.47613 36.7763 3.62251C36.7286 3.76917 36.7726 3.93002 36.8886 4.0317L38.469 5.41752L38.003 7.46993C37.9689 7.62084 38.0275 7.77689 38.1527 7.86741C38.22 7.91631 38.2991 7.94074 38.3784 7.94074C38.4466 7.94074 38.5149 7.92261 38.5758 7.88614L40.3787 6.80816L42.1812 7.88614C42.3135 7.96516 42.4797 7.95792 42.6047 7.86741C42.7299 7.77689 42.7885 7.62084 42.7544 7.46993L42.2884 5.41752L43.8688 4.0317C43.9847 3.93002 44.0288 3.7695 43.9811 3.62251Z" stroke="#FFE120"/>
</svg>
