<svg width="225" height="40" viewBox="0 0 225 40" fill="none" xmlns="http://www.w3.org/2000/svg">
<path d="M60.9756 14.6343H65.0406V10.7318C65.0406 6.01638 67.6423 2.92695 72.8455 2.92695L75.4471 3.41476V8.1302L72.6829 7.6424C71.0569 7.6424 70.4065 8.61801 70.4065 10.244V14.6343H75.6097V19.3497H70.2439V39.0245H65.0406V19.1871H60.9756V14.6343Z" fill="white"/>
<path d="M88.7805 14.1464C95.4471 14.1464 101.463 19.3497 101.463 26.8294C101.463 34.309 95.6097 39.5123 88.7805 39.5123C81.9512 39.5123 76.0975 34.309 76.0975 26.8294C76.2601 19.1871 82.1138 14.1464 88.7805 14.1464ZM88.7805 34.7968C93.6585 34.7968 96.2601 31.2196 96.2601 26.8294C96.2601 22.4391 93.6585 18.8619 88.7805 18.8619C83.9024 18.8619 81.3008 22.4391 81.3008 26.8294C81.3008 31.057 83.9024 34.7968 88.7805 34.7968Z" fill="white"/>
<path d="M116.423 14.1464C123.089 14.1464 129.106 19.3497 129.106 26.8294C129.106 34.309 123.252 39.5123 116.423 39.5123C109.593 39.5123 103.74 34.309 103.74 26.8294C103.74 19.1871 109.756 14.1464 116.423 14.1464ZM116.423 34.7968C121.301 34.7968 123.902 31.2196 123.902 26.8294C123.902 22.4391 121.301 18.8619 116.423 18.8619C111.545 18.8619 108.943 22.4391 108.943 26.8294C108.943 31.057 111.545 34.7968 116.423 34.7968Z" fill="white"/>
<path d="M156.098 38.8618H151.382L150.894 36.7479L150.569 36.4227L150.244 36.7479C148.618 38.374 146.179 39.3496 143.577 39.3496C136.911 39.3496 131.219 34.1463 131.219 26.6666C131.219 19.187 136.911 13.9837 143.577 13.9837C146.179 13.9837 148.78 14.9593 150.244 16.5853L150.569 16.9105L150.894 16.5853V3.08941H156.098V38.8618ZM143.902 18.6992C139.024 18.6992 136.423 22.2764 136.423 26.6666C136.423 31.0569 139.024 34.6341 143.902 34.6341C148.293 34.6341 151.382 31.0569 151.382 26.6666C151.382 22.2764 148.293 18.6992 143.902 18.6992Z" fill="white"/>
<path d="M172.033 14.1464C178.699 14.1464 184.715 19.3497 184.715 26.8294C184.715 34.309 178.862 39.5123 172.033 39.5123C165.366 39.5123 159.35 34.309 159.35 26.8294C159.35 19.1871 165.366 14.1464 172.033 14.1464ZM172.033 34.7968C176.911 34.7968 179.512 31.2196 179.512 26.8294C179.512 22.4391 176.911 18.8619 172.033 18.8619C167.154 18.8619 164.553 22.4391 164.553 26.8294C164.553 31.057 167.154 34.7968 172.033 34.7968Z" fill="white"/>
<path d="M187.967 14.6342H192.683L193.171 17.2359L193.496 17.5611L193.821 17.2359C195.447 15.122 197.398 14.1464 199.512 14.1464C200.488 14.1464 201.138 14.1464 202.114 14.6342V19.3497H199.024C195.935 19.3497 193.496 21.7887 193.333 24.8781V39.0245H188.13V14.6342H187.967Z" fill="white"/>
<path d="M214.797 23.7397H219.024V22.6015C219.024 19.6747 217.073 18.3739 214.309 18.3739C212.033 18.3739 210.569 19.5121 209.756 21.6259L205.203 20.6503C206.179 16.5853 209.756 13.821 214.472 13.821C220.976 13.821 224.228 17.0731 224.228 23.4145V38.5365H219.837L219.35 35.2845C217.724 37.7235 215.122 38.8617 211.707 38.8617C207.317 38.8617 204.228 36.2601 204.228 31.382C204.228 26.8292 208.455 23.7397 214.797 23.7397ZM212.683 34.7967C214.309 34.7967 215.935 34.3089 217.073 33.1706C218.374 32.0324 219.024 30.569 219.024 28.6178V28.13H214.634C211.545 28.13 209.594 29.5934 209.594 31.8698C209.594 33.4958 210.732 34.7967 212.683 34.7967Z" fill="white"/>
<path d="M29.2683 38.2113C31.0569 37.5609 44.065 32.3577 46.6667 31.382C46.9919 31.2194 46.9919 30.8942 46.8293 30.7316C46.5041 30.4064 46.0162 30.0812 45.0406 30.0812C43.7398 30.0812 32.5203 33.6585 32.5203 33.6585C32.5203 33.6585 27.3171 34.4715 26.6667 34.4715C26.0162 34.3089 25.8536 33.9837 25.8536 33.4959C25.8536 33.0081 26.1788 32.5203 27.1545 32.5203C28.1301 32.3577 33.8211 32.0325 34.7967 31.5446C35.7723 30.8942 35.6097 29.9186 35.1219 29.756C34.3089 29.4308 18.2114 29.4308 10.2439 29.5934C9.10568 29.5934 6.66665 29.5934 3.08942 29.5934C3.73982 33.4959 4.87803 36.9105 7.31706 39.9999C9.59348 38.8617 12.1951 38.0487 15.1219 38.2113C17.2358 38.0487 27.1545 38.8617 29.2683 38.2113Z" fill="white"/>
<path d="M48.7805 24.2276H46.6667C46.1789 12.8455 37.0732 3.57724 25.6911 3.08943V0.97561C25.6911 0.487805 25.3659 0 24.7154 0C24.2276 0 23.7398 0.325204 23.7398 0.97561V3.08943C12.3577 3.57724 3.08943 12.6829 2.76423 24.2276H0.97561C0.487805 24.2276 0 24.5528 0 25.2033C0 25.6911 0.325203 26.1789 0.97561 26.1789H48.7805C49.2683 26.1789 49.7561 25.8537 49.7561 25.2033C49.7561 24.5528 49.4309 24.2276 48.7805 24.2276ZM15.6098 7.64228C14.1463 9.43089 10.8943 14.3089 10.5691 21.1382C10.5691 21.7886 10.0813 22.2764 9.5935 22.2764H7.47967C6.82927 22.2764 6.34146 21.4634 6.50407 20.6504C7.15447 17.8862 9.26829 11.8699 15.4472 7.47968C15.6098 7.31707 15.7724 7.47967 15.6098 7.64228Z" fill="white"/>
</svg>
