<svg width="34" height="27" viewBox="0 0 34 27" fill="none" xmlns="http://www.w3.org/2000/svg">
<path d="M21.3125 18.1875L26.5922 12.9078C26.9 12.6001 27.2654 12.356 27.6676 12.1895C28.0697 12.023 28.5007 11.9374 28.9359 11.9375H29.125C29.9538 11.9375 30.7487 12.2667 31.3347 12.8528C31.9208 13.4388 32.25 14.2337 32.25 15.0625C32.25 15.8913 31.9208 16.6862 31.3347 17.2722C30.7487 17.8583 29.9538 18.1875 29.125 18.1875H4.125C3.2962 18.1875 2.50134 17.8583 1.91529 17.2722C1.32924 16.6862 1 15.8913 1 15.0625C1 14.2337 1.32924 13.4388 1.91529 12.8528C2.50134 12.2667 3.2962 11.9375 4.125 11.9375H11.1797C13.6657 11.9376 16.0498 12.9251 17.8078 14.6828L21.3125 18.1875ZM2.5625 18.1875H30.6875V21.3125C30.6875 22.5557 30.1936 23.748 29.3146 24.6271C28.4355 25.5061 27.2432 26 26 26H7.25C6.0068 26 4.81451 25.5061 3.93544 24.6271C3.05636 23.748 2.5625 22.5557 2.5625 21.3125V18.1875Z" stroke="#FF0036" stroke-width="2" stroke-linecap="round" stroke-linejoin="round"/>
<path d="M16.6249 1C9.40146 1 3.4499 3.74375 2.65302 10.375C2.5499 11.2344 3.2624 11.9375 4.1249 11.9375H29.1249C29.9874 11.9375 30.6999 11.2344 30.5968 10.375C29.7999 3.74375 23.8483 1 16.6249 1Z" stroke="#FF0036" stroke-width="2" stroke-linecap="round" stroke-linejoin="round"/>
</svg>
