<svg width="22" height="28" viewBox="0 0 22 28" fill="none" xmlns="http://www.w3.org/2000/svg">
<path d="M3.99426 27.5418C1.79016 27.5418 0 25.8975 0 23.8752C0 23.8527 0.00549316 23.8302 0.00549316 23.8077L1.52917 6.0489C1.56152 5.6547 1.87744 5.3559 2.25818 5.3559H5.39282C5.43604 2.394 7.776 0 10.6498 0C13.5234 0 15.8634 2.394 15.9066 5.3559H19.0414C19.4166 5.3559 19.7379 5.6547 19.7704 6.0489L21.2941 23.8077C21.2994 23.8302 21.2994 23.8527 21.2994 23.8752C21.2994 25.8975 19.5094 27.5418 17.3053 27.5418H3.99426ZM1.46973 23.9094C1.49133 25.0749 2.61182 26.0208 3.99426 26.0208H17.3053C18.6823 26.0208 19.8081 25.0749 19.8307 23.9094L18.3663 6.8823H15.9066V9.01212C16.233 9.10021 16.4728 9.39797 16.4728 9.7524C16.4728 10.1763 16.1299 10.5201 15.7059 10.5201H14.6044C14.1804 10.5201 13.8375 10.1763 13.8375 9.7524C13.8375 9.38602 14.0938 9.08018 14.4369 9.00393V6.8823H6.85718V9.01508C7.17798 9.10675 7.41248 9.40187 7.41248 9.7524C7.41248 10.1763 7.06958 10.5201 6.64563 10.5201H5.54407C5.12109 10.5201 4.77722 10.1763 4.77722 9.7524C4.77722 9.38226 5.03931 9.07391 5.38745 9.00164V6.8823H2.92773L1.46973 23.9094ZM6.86255 5.3559H14.4369C14.3938 3.2328 12.7125 1.521 10.6498 1.521C8.58691 1.521 6.90576 3.2328 6.86255 5.3559Z" fill="white"/>
</svg>
